<?xml version="1.0" encoding="UTF-8" standalone="no"?>
<!-- Created with Inkscape (http://www.inkscape.org/) -->

<svg
   xmlns:dc="http://purl.org/dc/elements/1.1/"
   xmlns:cc="http://creativecommons.org/ns#"
   xmlns:rdf="http://www.w3.org/1999/02/22-rdf-syntax-ns#"
   xmlns:svg="http://www.w3.org/2000/svg"
   xmlns="http://www.w3.org/2000/svg"
   xmlns:xlink="http://www.w3.org/1999/xlink"
   xmlns:sodipodi="http://sodipodi.sourceforge.net/DTD/sodipodi-0.dtd"
   xmlns:inkscape="http://www.inkscape.org/namespaces/inkscape"
   width="177"
   height="70"
   id="svg6427"
   version="1.1"
   inkscape:version="0.48.5 r10040"
   sodipodi:docname="graviton.svg">
  <defs
     id="defs6429">
    <clipPath
       clipPathUnits="userSpaceOnUse"
       id="clipPath6089">
      <rect
         style="fill:#000000;fill-opacity:1;stroke:#dd0000;stroke-width:0.704;stroke-linejoin:miter;stroke-miterlimit:4;stroke-opacity:1;stroke-dasharray:none;stroke-dashoffset:0"
         id="rect6091"
         width="22.368162"
         height="7.1648021"
         x="14.562606"
         y="28.136606" />
    </clipPath>
    <linearGradient
       inkscape:collect="always"
       xlink:href="#linearGradient6095"
       id="linearGradient6364"
       gradientUnits="userSpaceOnUse"
       gradientTransform="matrix(1.0370371,0,0,1.0612245,-0.48978153,-1.0864203)"
       x1="16.174931"
       y1="23.546347"
       x2="19.125763"
       y2="23.546347" />
    <linearGradient
       id="linearGradient6095">
      <stop
         id="stop6103"
         offset="0"
         style="stop-color:#000000;stop-opacity:1;" />
      <stop
         style="stop-color:#7f7f7f;stop-opacity:1;"
         offset="1"
         id="stop6099" />
    </linearGradient>
    <linearGradient
       inkscape:collect="always"
       xlink:href="#linearGradient6095-9"
       id="linearGradient6366"
       gradientUnits="userSpaceOnUse"
       gradientTransform="matrix(-1.0566649,0,0,1.0612245,39.494109,-1.1927363)"
       x1="16.174931"
       y1="23.546347"
       x2="19.125763"
       y2="23.546347" />
    <linearGradient
       id="linearGradient6095-9">
      <stop
         id="stop6103-2"
         offset="0"
         style="stop-color:#ffffff;stop-opacity:1;" />
      <stop
         style="stop-color:#7f7f7f;stop-opacity:1;"
         offset="1"
         id="stop6099-4" />
    </linearGradient>
    <linearGradient
       inkscape:collect="always"
       xlink:href="#linearGradient5987"
       id="linearGradient6368"
       gradientUnits="userSpaceOnUse"
       x1="12.572651"
       y1="25.422598"
       x2="19.73424"
       y2="25.422598" />
    <linearGradient
       id="linearGradient5987">
      <stop
         style="stop-color:#ffffff;stop-opacity:1;"
         offset="0"
         id="stop5989" />
      <stop
         style="stop-color:#7f7f7f;stop-opacity:0.99668872;"
         offset="1"
         id="stop5991" />
    </linearGradient>
    <linearGradient
       inkscape:collect="always"
       xlink:href="#linearGradient5961"
       id="linearGradient6370"
       gradientUnits="userSpaceOnUse"
       x1="18.871872"
       y1="22.771935"
       x2="25.659248"
       y2="22.771935" />
    <linearGradient
       id="linearGradient5961">
      <stop
         style="stop-color:#898989;stop-opacity:1;"
         offset="0"
         id="stop5977" />
      <stop
         style="stop-color:#000000;stop-opacity:1;"
         offset="1"
         id="stop5965" />
    </linearGradient>
  </defs>
  <sodipodi:namedview
     id="base"
     pagecolor="#ffcc00"
     bordercolor="#666666"
     borderopacity="1.0"
     inkscape:pageopacity="0"
     inkscape:pageshadow="2"
     inkscape:zoom="1.9407086"
     inkscape:cx="137.79939"
     inkscape:cy="30"
     inkscape:document-units="px"
     inkscape:current-layer="layer1"
     showgrid="false"
     inkscape:window-width="1024"
     inkscape:window-height="565"
     inkscape:window-x="0"
     inkscape:window-y="0"
     inkscape:window-maximized="1" />
  <metadata
     id="metadata6432">
    <rdf:RDF>
      <cc:Work
         rdf:about="">
        <dc:format>image/svg+xml</dc:format>
        <dc:type
           rdf:resource="http://purl.org/dc/dcmitype/StillImage" />
        <dc:title></dc:title>
      </cc:Work>
    </rdf:RDF>
  </metadata>
  <g
     id="layer1"
     inkscape:label="Layer 1"
     inkscape:groupmode="layer"
     transform="translate(0,10)">
    <flowRoot
       xml:space="preserve"
       id="flowRoot3047"
       style="font-size:14px;font-style:normal;font-variant:normal;font-weight:normal;font-stretch:normal;line-height:125%;letter-spacing:0px;word-spacing:0px;fill:#000000;fill-opacity:1;stroke:none;font-family:Droid Sans;-inkscape-font-specification:Droid Sans"><flowRegion
         id="flowRegion3049"><rect
           id="rect3051"
           width="281.84222"
           height="59.073685"
           x="114.00669"
           y="0.098177709" /></flowRegion><flowPara
         id="flowPara3053" /></flowRoot>    <path
       style="font-size:48px;font-style:normal;font-variant:normal;font-weight:bold;font-stretch:normal;line-height:125%;letter-spacing:0px;word-spacing:0px;fill:#ffffff;fill-opacity:1;stroke:none;font-family:Advertising Script;-inkscape-font-specification:Advertising Script Bold"
       d="m 103.85458,-4.4858758 c -0.0983,0.016281 -0.18243,0.040508 -0.24796,0.1056105 -0.16383,0.1302919 -0.25061,0.4216199 -0.28339,0.8448844 -0.0655,0.3256636 -0.10893,0.7868607 -0.14169,1.3729372 -0.0655,0.5861589 -0.10361,1.17409763 -0.0708,1.76017581 0.0328,0.58615725 0.15499,1.09576469 0.3188,1.58415829 0.16383,0.4884693 0.4189,0.8202835 0.77931,0.9504949 0.58978,0.2605337 1.43646,0.6838859 2.55047,1.3025305 1.08126,0.6187152 2.34595,1.3712402 3.75485,2.2178212 1.37614,0.8140855 2.81974,1.6986355 4.39248,2.6754672 1.60549,0.9768937 3.20937,1.9450568 4.78212,2.9218918 -0.55701,1.335074 -1.23541,2.969507 -2.05454,4.858085 -0.78638,1.888624 -1.58699,3.865437 -2.37336,5.949394 -0.75359,2.083991 -1.432,4.184904 -2.05454,6.30143 -0.17057,0.570978 -0.32683,1.108032 -0.4605,1.654565 -0.4497,0.383408 -0.94462,0.791045 -1.48777,1.267327 -0.52425,0.455877 -1.03438,0.914433 -1.55862,1.337733 -0.49149,0.390752 -0.95821,0.690004 -1.41693,0.950495 -0.42595,0.260503 -0.80324,0.387245 -1.09812,0.387239 -0.49147,6e-6 -0.74388,-0.296605 -0.74388,-0.915291 0,-1.074544 0.29048,-2.336676 0.81473,-3.80198 0.557,-1.497846 1.15393,-2.965052 1.842,-4.365236 0.68806,-1.400156 1.36381,-2.621803 2.01912,-3.69637 0.68806,-1.107093 1.19022,-1.819131 1.45236,-2.112211 0.19658,-0.227914 0.28337,-0.400425 0.28338,-0.563256 -1e-5,-0.195352 -0.12488,-0.362579 -0.35423,-0.492849 -0.22937,-0.162789 -0.52517,-0.246403 -0.88558,-0.246425 -0.39319,2.2e-5 -0.90332,0.04315 -1.55862,0.140814 -0.65531,0.06515 -1.33106,0.189246 -2.01911,0.352036 -0.65532,0.162831 -1.24959,0.335341 -1.80659,0.563256 -0.52425,0.227955 -0.90153,0.478797 -1.09812,0.739274 -0.65531,0.911758 -1.29031,2.047149 -1.91285,3.414741 -0.44233,1.001296 -0.83578,2.075455 -1.20438,3.168316 -0.30409,0.110139 -0.63486,0.21547 -0.99185,0.316832 -0.6881,0.195386 -1.453295,0.284282 -2.337933,0.316832 0.06552,-0.390733 0.108934,-0.770957 0.141693,-1.161716 0.06552,-0.390732 0.106212,-0.768316 0.106212,-1.126513 -2.2e-5,-1.562966 -0.333907,-2.655229 -0.956425,-3.273927 -0.622563,-0.651224 -1.344357,-0.950476 -2.196236,-0.950495 -0.589793,1.9e-5 -1.219474,0.129401 -1.842004,0.422442 -0.589792,0.260515 -1.102572,0.635457 -1.594042,1.091309 -0.491491,0.455886 -0.912172,0.962853 -1.23981,1.548955 -0.294902,0.553572 -0.460512,1.103665 -0.460501,1.689769 -1.1e-5,1.139687 0.249742,2.145695 0.708463,2.992299 0.49147,0.814063 1.129132,1.482975 1.948274,1.971397 -0.753612,1.204806 -1.68442,2.213456 -2.79843,3.027502 -1.081262,0.814059 -2.182996,1.196924 -3.329776,1.19692 -0.655311,4e-6 -1.162787,-0.129378 -1.523197,-0.422443 -0.32766,-0.293053 -0.536663,-0.87835 -0.602193,-1.724972 -0.03276,-0.455862 0.04874,-1.130056 0.212539,-2.041804 0.163819,-0.911729 0.418889,-1.960865 0.779309,-3.133113 0.36041,-1.204785 0.824482,-2.466918 1.381503,-3.80198 0.557,-1.33503 1.232749,-2.678134 2.019121,-4.013201 0.163819,-0.293038 0.209875,-0.465549 0.177115,-0.563256 -1.1e-5,-0.195352 -0.127546,-0.362579 -0.389654,-0.492849 -0.229361,-0.162789 -0.52517,-0.246403 -0.885579,-0.246425 -0.393192,2.2e-5 -0.903319,0.04315 -1.558619,0.140814 -0.655311,0.06515 -1.328397,0.189246 -1.983697,0.352036 -0.622541,0.162831 -1.214147,0.335341 -1.771158,0.563256 -0.524252,0.227955 -0.825365,0.478797 -0.956425,0.739274 -0.360421,0.586137 -0.783753,1.508531 -1.275233,2.745874 -0.491482,1.204814 -0.955553,2.547919 -1.381503,4.013201 -0.327651,1.204811 -0.58272,2.423816 -0.77931,3.661166 -0.045,0.243038 -0.0713,0.464801 -0.106213,0.70407 -0.236683,0.205087 -0.450741,0.372461 -0.708463,0.59846 -0.524262,0.455877 -1.031738,0.914433 -1.523196,1.337733 -0.491503,0.390752 -0.958228,0.690004 -1.416926,0.950495 -0.425962,0.260503 -0.80325,0.387245 -1.098118,0.387239 -0.491492,6e-6 -0.743909,-0.296605 -0.743886,-0.915291 -2.3e-5,-0.651236 0.124859,-1.446889 0.354231,-2.358636 0.229338,-0.911731 0.525148,-1.798921 0.885579,-2.710671 0.360398,-0.94429 0.742991,-1.826197 1.168964,-2.640264 0.425928,-0.814038 0.84926,-1.445104 1.275235,-1.900989 0.196566,-0.195357 0.318785,-0.400429 0.318807,-0.563257 -2.2e-5,-0.162794 -0.122241,-0.292177 -0.318807,-0.422442 -0.196614,-0.130232 -0.454336,-0.211204 -0.814733,-0.211221 -1.343394,1.7e-5 -2.442476,0.126759 -3.294354,0.387239 -0.851913,0.260512 -1.56839,0.635455 -2.125389,1.091309 -0.557023,0.423323 -0.983018,0.930288 -1.310657,1.548954 -0.327661,0.618693 -0.661546,1.290247 -0.956425,2.006601 -0.294903,0.716377 -0.596017,1.471544 -0.956425,2.253025 -0.327662,0.7815 -0.789081,1.577152 -1.346081,2.358636 -0.458721,0.618687 -0.966195,1.123011 -1.523195,1.513751 -0.557022,0.390751 -1.23276,0.563262 -2.019121,0.563256 -0.589781,-0.09768 -0.972374,-0.270192 -1.168964,-0.563256 -0.163831,-0.325615 -0.247961,-0.662713 -0.247961,-1.020902 0,-1.465288 0.420668,-2.935134 1.23981,-4.40044 0.819119,-1.497845 1.880125,-2.843591 3.223507,-4.048404 1.37613,-1.204783 2.97737,-2.20815 4.746703,-2.957096 1.769311,-0.74891 3.587521,-1.126493 5.455167,-1.126512 0.458698,1.9e-5 0.884683,0.081 1.310656,0.211221 0.458687,0.130268 0.882031,0.21124 1.275233,0.211221 0.589748,1.9e-5 0.885557,-0.29395 0.885579,-0.880088 -2.2e-5,-0.260477 -0.0408,-0.511318 -0.106212,-0.739274 -0.06552,-0.260476 -0.111654,-0.470831 -0.177116,-0.633663 -0.229384,-0.94428 -1.076047,-1.443322 -2.550467,-1.443344 -2.850595,2.2e-5 -5.635048,0.501706 -8.289019,1.478548 -2.621234,0.976883 -4.94692,2.279502 -6.978361,3.90759 -1.998683,1.59556 -3.569816,3.442989 -4.782127,5.526952 -0.688343,1.164774 -1.190263,2.348797 -1.487772,3.555555 -0.100886,0.08809 -0.179009,0.154902 -0.283386,0.246425 -0.524262,0.455877 -1.034389,0.914433 -1.558619,1.337733 -0.491491,0.390752 -0.955575,0.690004 -1.381503,0.950495 -0.425962,0.260503 -0.765162,0.387245 -1.027271,0.387239 -0.491492,6e-6 -0.743898,-0.296605 -0.743887,-0.915291 -1.1e-5,-0.586112 0.08683,-1.21982 0.283385,-1.936194 0.196579,-0.74892 0.448985,-1.541932 0.743887,-2.323432 0.294868,-0.814042 0.631417,-1.614977 0.991849,-2.429043 0.360397,-0.814039 0.702262,-1.612333 1.062694,-2.393839 0.131049,-0.293044 0.296659,-0.587013 0.460501,-0.880088 0.163808,-0.293043 0.288679,-0.58437 0.354232,-0.844884 0.09828,-0.26048 0.100885,-0.473477 0.03548,-0.668867 -0.03276,-0.227917 -0.201057,-0.438273 -0.495924,-0.633663 -1.212334,-0.553538 -2.438939,-1.098349 -3.684009,-1.619362 -1.245093,-0.553535 -2.474361,-1.144115 -3.719431,-1.795379 -0.196602,-0.09767 -0.275417,-0.388993 -0.177116,-0.844885 0.131048,-0.488408 0.299323,-0.992733 0.495924,-1.513751 0.22935,-0.520969 0.441015,-0.982167 0.637617,-1.372937 l 0.354232,-0.633663 c -9e-6,-0.195347 -0.124881,-0.405703 -0.35423,-0.633664 -0.196602,-0.227908 -0.449007,-0.438264 -0.743886,-0.633663 -0.262131,-0.195345 -0.522517,-0.324728 -0.850156,-0.422442 -0.294891,-0.13022 -0.547308,-0.211193 -0.743886,-0.211221 -0.163831,2.8e-5 -0.4189,0.124128 -0.77931,0.352035 -0.327661,0.227962 -0.707601,0.524573 -1.13354,0.915291 -0.425952,0.390772 -0.849295,0.849328 -1.275234,1.337734 -0.393191,0.455895 -0.767815,0.919733 -1.062695,1.408141 -0.19659,0.358207 -0.326789,0.822045 -0.425078,1.40814 -0.09828,0.553579 -0.13904,0.971648 -0.106213,1.232123 0.03276,0.325643 0.07617,0.705868 0.141693,1.161716 0.06552,0.45589 0.442806,1.081673 1.098117,1.830583 -0.262131,1.042005 -0.557928,2.050655 -0.885579,3.027503 -0.32766,0.944316 -0.750993,1.871993 -1.275233,2.816281 -0.524251,0.944313 -1.197337,1.907194 -1.983696,2.851485 -0.786372,0.94431 -1.719832,1.874628 -2.833854,2.851485 -0.55701,0.488438 -0.977679,0.946994 -1.23981,1.337733 -0.262119,0.39075 -0.218716,0.727848 0.141693,1.020902 0.327661,0.260502 0.664198,0.427729 0.991849,0.49285 0.327649,0.03257 0.70759,-0.09418 1.13354,-0.387239 0.622541,-0.488428 1.339018,-1.157338 2.125389,-1.971397 0.819131,-0.814046 1.622404,-1.741724 2.408776,-2.816281 0.81913,-1.107103 1.581663,-2.323466 2.302504,-3.625962 0.753601,-1.302472 1.388599,-2.650859 1.912851,-4.083608 0.09828,1.6e-5 0.266564,0.04315 0.495924,0.140814 0.22935,0.06515 0.484419,0.151396 0.77931,0.281628 0.294879,0.130264 0.590677,0.257006 0.885579,0.387238 0.294879,0.130265 0.509197,0.254365 0.673039,0.352036 -0.491491,0.944316 -0.92014,1.952966 -1.346079,3.027502 -0.393192,1.041999 -0.770468,2.091135 -1.098118,3.133113 -0.327662,1.041996 -0.58272,2.053288 -0.77931,3.062706 -0.16383,1.009431 -0.247974,1.934466 -0.247962,2.781078 -1.2e-5,1.107115 0.211666,1.991664 0.637617,2.675467 0.425939,0.683804 1.269951,1.056106 2.515044,1.056106 0.75359,0 1.641004,-0.164587 2.656736,-0.457646 1.048481,-0.325621 2.106812,-0.789459 3.188085,-1.408141 0.925808,-0.541223 1.798793,-1.215051 2.656737,-1.936193 0.02369,0.07006 0.04398,0.142504 0.07085,0.211221 0.32765,0.976866 0.837778,1.856133 1.558618,2.60506 0.720831,0.748929 1.564854,1.126513 2.515045,1.126513 1.507201,0 2.90208,-0.331815 4.179932,-0.950495 1.277842,-0.61868 2.379575,-1.416974 3.329777,-2.393839 0.06552,0.683806 0.233793,1.269104 0.495924,1.724972 0.524229,0.976864 1.539179,1.478548 3.046391,1.478548 1.67101,0 3.361699,-0.544811 5.065512,-1.619362 1.140127,-0.705494 2.310259,-1.654498 3.506892,-2.781078 0.0091,0.07698 0.02539,0.17174 0.03548,0.246425 0.229361,1.302487 0.731509,2.354264 1.45235,3.168316 0.7536,0.814053 1.898738,1.232123 3.471469,1.232123 1.277841,0 2.542533,-0.250842 3.754855,-0.739274 1.24507,-0.488431 2.39286,-1.157341 3.506892,-1.971397 1.114011,-0.81405 2.167036,-1.739085 3.117238,-2.781077 0.950179,-1.041983 1.756115,-2.096401 2.444198,-3.20352 0.688059,7e-6 1.613551,-0.124093 2.727583,-0.352036 0.692525,-0.161934 1.351909,-0.393672 2.019119,-0.668866 -0.14559,0.631979 -0.27905,1.269013 -0.38965,1.900989 -0.29489,1.465303 -0.42508,2.730077 -0.42508,3.837184 0,1.107115 0.21166,1.991664 0.63762,2.675467 0.42594,0.683804 1.23454,1.056106 2.47962,1.056106 1.67102,0 3.3998,-0.544811 5.13635,-1.619362 1.19689,-0.740615 2.40499,-1.717223 3.64859,-2.921892 0.002,0.05924 -0.007,0.115385 0,0.176017 l 0,0.774478 c 0,0.716369 0.0894,1.38528 0.31881,1.971397 0.19659,0.553557 0.53578,0.971626 1.02727,1.232123 0.26212,0.16281 0.59601,0.249066 0.95642,0.281628 0.36043,0.06512 0.61815,0.105611 0.81473,0.105611 1.11403,0.03257 2.20778,-0.172511 3.22351,-0.563257 1.04848,-0.390744 2.02269,-0.897711 2.94013,-1.548954 0.88237,-0.635 1.71026,-1.336807 2.47963,-2.112211 0.0563,0.279103 0.11423,0.565781 0.21253,0.844884 0.22937,0.651245 0.5659,1.241825 0.99185,1.795379 0.45871,0.520995 0.96884,0.979551 1.55862,1.337734 0.62254,0.325621 1.33902,0.492849 2.12539,0.492849 1.27784,0 2.54253,-0.250842 3.75485,-0.739274 1.24507,-0.488431 2.39287,-1.157341 3.50689,-1.971397 1.11402,-0.81405 2.16704,-1.739085 3.11724,-2.781077 0.95018,-1.041983 1.75612,-2.096401 2.4442,-3.20352 0.55699,7e-6 1.27348,-0.08361 2.12539,-0.246425 0.88464,-0.162803 1.77471,-0.451488 2.69216,-0.809681 0.11934,-0.05083 0.23489,-0.122986 0.35423,-0.176018 -0.40375,1.452084 -0.71686,2.730667 -0.95643,3.80198 -0.29489,1.172241 -0.50389,2.17825 -0.60219,2.992299 -0.13105,0.781493 -0.21518,1.412559 -0.24796,1.90099 0.81913,0.586119 1.57901,0.880088 2.26708,0.880088 1.04849,-0.03257 1.9359,-0.574732 2.65674,-1.584158 0.72083,-1.041986 1.43731,-2.344605 2.12539,-3.907591 0.6553,-1.530413 1.41783,-2.87616 2.30251,-4.048404 0.88464,-1.204788 1.77205,-2.213437 2.65673,-3.027502 0.91742,-0.846603 1.76409,-1.477668 2.55046,-1.90099 0.78636,-0.423293 1.4187,-0.633649 1.87743,-0.633664 0.0983,1.5e-5 0.14168,0.04315 0.14169,0.140814 -1e-5,0.162825 -0.12754,0.416309 -0.38964,0.774478 -0.32767,0.488446 -0.78909,1.116871 -1.34609,1.865786 -0.55702,0.748941 -1.10789,1.58772 -1.66488,2.49945 -0.52425,0.911748 -0.991,1.879912 -1.41693,2.921892 -0.3932,1.009432 -0.6022,2.01544 -0.60219,2.992299 -1e-5,1.139677 0.21165,2.105198 0.63761,2.886688 0.42594,0.748929 1.31069,1.126513 2.62132,1.126513 1.63824,0 3.32894,-0.544811 5.0655,-1.619362 1.73655,-1.074548 3.51403,-2.63065 5.3489,-4.682068 0.42593,-0.455863 0.80852,-1.043802 1.16897,-1.760176 0.39316,-0.716358 0.60217,-1.347425 0.60219,-1.90099 -2e-5,-0.520984 -0.24978,-0.80967 -0.70846,-0.809681 -0.26215,1.1e-5 -0.72888,0.293981 -1.41693,0.880088 -0.65532,0.553565 -1.37446,1.18199 -2.16082,1.865787 -0.78637,0.651249 -1.54892,1.279674 -2.30249,1.865786 -0.72086,0.553562 -1.27173,0.809687 -1.66489,0.809681 -0.49149,6e-6 -0.74656,-0.215632 -0.77932,-0.70407 0.0328,-0.195367 0.038,-0.403081 0.0708,-0.59846 0.0655,-0.227928 0.18773,-0.47877 0.31881,-0.739274 0.26211,-0.618673 0.60396,-1.290225 1.0627,-2.0066 0.45869,-0.748919 0.9635,-1.506727 1.48777,-2.288229 l 1.66466,-2.358636 c 0.55699,-0.814038 1.02372,-1.574488 1.41693,-2.323432 0.32762,-0.586102 0.58269,-1.133554 0.7793,-1.654565 0.19657,-0.520976 0.31879,-1.020018 0.31881,-1.443344 -2e-5,-0.586099 -0.24977,-1.012092 -0.70846,-1.337734 -0.45873,-0.358162 -1.22128,-0.563235 -2.3025,-0.563256 -0.91745,2.1e-5 -1.88899,0.205094 -2.9047,0.563256 -1.01575,0.325642 -2.03068,0.751635 -3.04639,1.337734 -0.98297,0.586137 -1.95453,1.298176 -2.9047,2.112211 -0.9502,0.781508 -1.79954,1.622929 -2.58589,2.534653 0.3604,-0.748913 0.69694,-1.420466 0.99185,-2.0066 0.32764,-0.618663 0.58536,-1.168757 0.81473,-1.689769 l 0.63761,-1.267327 c 0.19658,-0.423287 0.3188,-0.881843 0.31881,-1.337733 -1e-5,-0.553535 -0.20902,-0.887991 -0.6022,-0.985699 -0.39318,-0.130226 -0.8546,-0.175995 -1.34607,-0.176017 -0.45873,2.2e-5 -1.00959,0.04314 -1.66488,0.140814 -0.62257,0.06515 -1.21949,0.189246 -1.84202,0.352035 -0.58977,0.162832 -1.13533,0.373187 -1.59404,0.633663 -0.42595,0.260517 -0.68101,0.594973 -0.7793,0.985699 -0.16384,0.651261 -0.37285,1.328097 -0.6022,2.077007 -0.22936,0.716384 -0.48442,1.512037 -0.77931,2.358636 -0.29277,0.834911 -0.5261,1.602359 -0.77931,2.358635 -0.38498,0.157798 -0.83804,0.299873 -1.34608,0.457646 -0.36044,0.0977 -0.77845,0.181313 -1.20438,0.246425 -0.42598,0.06514 -0.85462,0.108269 -1.34608,0.140814 0.0655,-0.390733 0.10892,-0.770957 0.14169,-1.161716 0.0655,-0.390732 0.10621,-0.768316 0.10621,-1.126513 -2e-5,-1.562966 -0.3339,-2.655229 -0.95642,-3.273927 -0.62256,-0.651224 -1.34436,-0.950476 -2.19624,-0.950495 -0.85191,1.9e-5 -1.73933,0.29663 -2.65673,0.915291 -0.88468,0.586136 -1.56043,1.300816 -2.01912,2.147415 -0.29491,0.553572 -0.46052,1.103665 -0.46051,1.689769 -1e-5,1.139687 0.24974,2.145695 0.70846,2.992299 0.49147,0.814063 1.12913,1.482975 1.94827,1.971397 -0.7536,1.204806 -1.68441,2.213456 -2.79842,3.027502 -1.08126,0.814059 -2.18299,1.196924 -3.32977,1.19692 -0.65532,4e-6 -1.16545,-0.129378 -1.55863,-0.422443 -0.36041,-0.293053 -0.56676,-0.87835 -0.56676,-1.724972 0,-0.944293 0.21166,-2.04184 0.63761,-3.344334 0.45871,-1.302474 1.08839,-2.561964 1.842,-3.766776 0.7536,-1.237346 1.60292,-2.329609 2.5859,-3.273927 0.98294,-0.976845 2.03863,-1.607912 3.15265,-1.90099 0.26211,-0.0651 0.43304,-0.191846 0.53135,-0.387239 0.13105,-0.195353 0.21253,-0.443553 0.21255,-0.70407 -2e-5,-0.293039 -0.0815,-0.632777 -0.21255,-1.056106 -0.0983,-0.423286 -0.26658,-0.838713 -0.49593,-1.196919 -0.22936,-0.35816 -0.48442,-0.654771 -0.7793,-0.915292 -0.29491,-0.260473 -0.59337,-0.387215 -0.921,-0.387238 -0.42596,2.3e-5 -1.01491,0.167252 -1.73574,0.492849 -0.68808,0.293082 -1.36382,0.632821 -2.01912,1.056105 -1.50721,0.976886 -2.82328,2.190608 -4.00281,3.590759 -1.17955,1.400189 -2.19184,2.875319 -3.01097,4.470847 -0.78638,1.562994 -1.38063,3.159582 -1.80658,4.787678 -0.088,0.329574 -0.17815,0.665851 -0.24797,0.985698 -0.27448,0.258529 -0.55459,0.515957 -0.81473,0.774478 -0.36042,0.390753 -0.61815,0.682081 -0.81473,0.844884 -0.36044,0.293066 -0.78376,0.589677 -1.27524,0.915292 -0.45872,0.325627 -0.92014,0.579109 -1.34608,0.774477 -0.42595,0.162816 -0.76782,0.205943 -1.06269,0.140814 -0.26213,-0.06512 -0.38966,-0.318602 -0.38966,-0.774477 0,-0.683798 0.0894,-1.484734 0.31881,-2.429043 0.26212,-0.944292 0.60132,-1.993428 1.02728,-3.133113 0.42593,-1.172224 0.92809,-2.393871 1.45234,-3.696369 0.557,-1.302468 1.11054,-2.683418 1.70031,-4.083608 0.29488,-0.748909 0.62877,-1.466231 0.95643,-2.182618 0.32765,-0.748907 0.62611,-1.504074 0.921,-2.253025 l 0.35429,-0.809681 c 0.36042,0.195397 0.66152,0.367908 0.95643,0.563256 0.29488,0.195397 0.59067,0.365266 0.88557,0.528053 0.39318,0.227958 0.68898,0.435672 0.88558,0.59846 0.22935,0.162833 0.44102,0.327419 0.63763,0.457645 0.19658,0.130271 0.40824,0.257013 0.63761,0.387239 0.26211,0.09771 0.63939,0.183964 1.09812,0.281628 0.62252,0.162832 1.12734,0.162832 1.48777,0 0.39317,-0.195351 0.65355,-0.408347 0.85016,-0.668867 0.22934,-0.325598 0.39761,-0.703181 0.49592,-1.126512 0.0328,-0.293035 0.0328,-0.50075 0,-0.59846 -0.0328,-0.130225 -0.24444,-0.337938 -0.63761,-0.59846 -0.36044,-0.260472 -0.95736,-0.640697 -1.84201,-1.161716 -0.85192,-0.55353 -2.11661,-1.394951 -3.75486,-2.534653 0.6553,-1.4652658 1.2469,-2.8488575 1.77117,-4.1188111 0.55699,-1.2698894 1.15125,-2.4888942 1.80658,-3.6611657 0.0983,-0.2278986 0.1824,-0.4813816 0.24796,-0.7744774 0.0983,-0.2930219 0.13635,-0.5491463 0.0708,-0.8096809 -0.0328,-0.2930211 -0.16032,-0.5412214 -0.38965,-0.7040703 -0.19662,-0.19533411 -0.53316,-0.27894804 -0.99185,-0.24642461 -1.9004,0.0651631 -3.25189,0.23239061 -4.03824,0.49284921 -0.75361,0.260535 -1.22035,0.551863 -1.41693,0.8448844 -0.26213,0.3582204 -0.51188,0.6979588 -0.70846,1.0561055 -0.16383,0.3582189 -0.29668,0.738444 -0.4605,1.1617161 -0.16383,0.3907804 -0.37019,0.8493363 -0.56677,1.3377336 -0.19661,0.4884648 -0.41094,1.0359173 -0.67304,1.6545653 -4.68544,-3.3538641 -8.49015,-6.0453566 -11.40627,-8.0968088 -2.94887,-2.0513718 -4.89461,-3.1814801 -5.84482,-3.3443341 -0.13106,-0.032541 -0.25592,-0.016281 -0.35422,0 z M 41.013901,0.9706693 c -0.21297,-0.016282 -0.446355,0.00266 -0.708463,0.035203 -0.458745,0.065162 -1.093754,0.1892624 -1.912851,0.3520351 -0.819165,0.1302862 -1.622438,0.3001554 -2.408775,0.5280528 -4.095687,1.1722726 -7.98719,2.728375 -11.689641,4.6820677 -3.702497,1.953758 -6.958989,4.1814131 -9.776791,6.6886681 -2.817825,2.507307 -5.059368,5.277131 -6.7304002,8.272827 -1.6710321,2.963168 -2.5150434,6.07273 -2.5150434,9.328932 0,1.074557 0.086828,2.126334 0.2833861,3.168316 0.19659,1.041993 0.5738763,1.969669 1.0981169,2.816281 0.5242395,0.846617 1.2053054,1.556015 2.0899657,2.077008 0.8846603,0.520994 2.0244809,0.774476 3.4006229,0.774477 1.474431,-10e-7 2.828571,-0.334456 4.073664,-0.985698 1.27784,-0.683803 2.458389,-1.482098 3.506892,-2.393839 1.04848,-0.911737 1.979288,-1.836772 2.79843,-2.781078 0.819118,-0.944295 1.500172,-1.696821 2.089965,-2.217822 -0.262142,0.81406 -0.563256,1.817428 -0.956425,2.957096 -0.393203,1.107116 -0.89535,2.288276 -1.452349,3.590758 -0.622552,1.465296 -1.347009,2.935142 -2.231659,4.40044 -0.884672,1.465291 -1.894306,2.811037 -2.975545,4.048404 -1.048503,1.269915 -2.190976,2.402665 -3.436046,3.379538 -1.212322,0.976852 -2.479667,1.732019 -3.7902784,2.253025 -0.622541,0.260484 -0.9670582,0.473481 -1.0981178,0.668867 -0.098279,0.227921 -0.092946,0.435635 0.070849,0.59846 0.1638198,0.162796 0.4188883,0.330024 0.7793091,0.492849 0.3931799,0.162796 0.8111968,0.330023 1.2043878,0.492849 0.72083,0.293044 1.269044,0.503399 1.629465,0.633663 0.39318,0.162795 0.688978,0.246409 0.885579,0.246425 0.22935,-1.6e-5 0.400276,-0.04315 0.531348,-0.140814 0.163819,-0.0977 0.375485,-0.259648 0.637616,-0.422442 1.605491,-0.976878 3.046426,-2.033939 4.357049,-3.238724 1.3106,-1.172248 2.450421,-2.345483 3.400622,-3.485148 0.98294,-1.139681 1.788876,-2.188818 2.444198,-3.133113 0.655289,-0.944306 1.157448,-1.658987 1.45235,-2.147414 1.441648,-2.344475 2.624862,-4.57477 3.542316,-6.723872 0.950167,-2.149095 1.75344,-4.166394 2.408774,-6.055005 0.655277,-1.888593 1.206144,-3.611921 1.664888,-5.174917 0.458687,-1.595528 0.925423,-2.98176 1.416927,-4.154015 -2.3e-5,-0.03254 0.08411,-0.321229 0.247961,-0.809681 0.196568,-0.488412 0.40557,-0.995378 0.602194,-1.548954 0.196568,-0.586097 0.367494,-1.130909 0.531348,-1.619362 0.196566,-0.488409 0.283351,-0.741892 0.283385,-0.774478 0.163796,-0.35816 0.03888,-0.571156 -0.354232,-0.668866 -0.360444,-0.09766 -1.041508,-0.09237 -2.089966,0.07041 -0.557033,0.09771 -1.023769,0.181324 -1.416926,0.246424 -0.393214,0.06515 -0.767827,0.148762 -1.062695,0.246425 -0.262143,0.06515 -0.476472,0.186607 -0.67304,0.316831 -0.196612,0.130273 -0.367539,0.2975 -0.531348,0.49285 -0.196612,0.227957 -0.405625,0.484081 -0.602193,0.809681 -0.163853,0.325643 -0.459651,0.910939 -0.885579,1.724972 -0.425973,0.716386 -0.979492,1.557808 -1.700311,2.534653 -0.688093,0.944318 -1.447974,1.915123 -2.267082,2.957096 -0.819154,1.042001 -1.703904,2.091137 -2.621314,3.133112 -0.884672,1.009437 -1.734011,1.931831 -2.58589,2.745875 -0.819143,0.781499 -1.619762,1.415207 -2.373351,1.936193 -0.720842,0.488438 -1.315112,0.73928 -1.806582,0.739274 -0.622551,6e-6 -1.130016,-0.169863 -1.523195,-0.528053 C 13.909,32.016674 13.615855,31.555477 13.419265,31.034475 13.222664,30.480927 13.09514,29.930834 13.02961,29.344706 c -0.06552,-0.586107 -0.106326,-1.128277 -0.106212,-1.584158 -1.2e-5,-1.693217 0.418015,-3.330292 1.204387,-4.893289 0.78636,-1.562964 1.801298,-2.997607 3.046391,-4.365236 1.277829,-1.400149 2.718776,-2.702768 4.357048,-3.90759 1.671007,-1.204776 3.364359,-2.29704 5.100932,-3.27393 1.769299,-0.976835 3.50339,-1.8561016 5.207203,-2.6050601 1.703769,-0.7814595 3.304998,-1.4151678 4.746704,-1.9361934 0.425916,-0.1627777 0.933391,-0.3300062 1.523195,-0.4928492 0.622507,-0.1953396 1.216777,-0.4004122 1.806581,-0.5632563 0.589737,-0.1953395 1.099875,-0.3273634 1.558619,-0.4576457 0.458676,-0.1302147 0.79256,-0.213829 0.956425,-0.2464246 C 42.95509,4.888859 43.256215,4.6811458 43.387309,4.4206139 43.518334,4.1601518 43.559074,3.9066684 43.493521,3.6461369 43.428003,3.3856748 43.338498,3.1348335 43.174713,2.9068627 43.043619,2.6789642 42.959476,2.5143778 42.926751,2.449217 42.893992,2.3841293 42.812467,2.2573879 42.714212,2.0619783 42.648693,1.8666427 42.521113,1.6967736 42.324557,1.5339255 42.160692,1.3385905 41.908287,1.2092076 41.580671,1.1114833 41.416829,1.0463777 41.22687,0.9869503 41.013901,0.9706693 z m 72.086119,7.7447736 c -0.52425,3.04e-5 -1.07247,0.08628 -1.62946,0.2816281 -0.52425,0.1954027 -0.99098,0.4840895 -1.41693,0.8096813 -0.42596,0.2930877 -0.80324,0.6354677 -1.09811,1.0913087 -0.26214,0.423335 -0.38967,0.884532 -0.38966,1.372937 -1e-5,0.651268 0.25239,1.239208 0.74388,1.760176 0.52424,0.521018 1.24073,0.774502 2.1254,0.774477 0.32763,2.5e-5 0.6695,-0.0431 1.06269,-0.140814 0.88465,-0.22791 1.68527,-0.689107 2.37336,-1.372937 0.72081,-0.683779 1.06267,-1.403742 1.06268,-2.217822 -1e-5,-0.618651 -0.25241,-1.1634627 -0.74388,-1.6193612 -0.4915,-0.4884018 -1.17255,-0.7392435 -2.08997,-0.7392739 z M 42.289134,15.2985 c 0.26212,2.4e-5 0.427731,0.08364 0.460501,0.246425 0.03276,0.130272 0.03537,0.25173 0.03548,0.316831 -1.1e-5,0.03259 -0.0056,0.161968 -0.07085,0.422443 -1.1e-5,-0.35816 -0.08151,-0.609002 -0.212539,-0.739274 -0.09828,-0.162787 -0.17978,-0.246401 -0.212539,-0.246425 z m 51.221884,8.061606 c 0.262109,1.5e-5 0.392296,0.08363 0.425078,0.246424 0.03276,0.130264 0.07085,0.251723 0.07085,0.316832 -1.2e-5,0.06513 -0.03809,0.110905 -0.07085,0.176017 -0.01225,-0.109891 -0.02165,-0.208351 -0.07085,-0.281628 -0.03276,-0.09767 -0.111654,-0.181285 -0.177116,-0.246424 -0.06552,-0.09767 -0.111653,-0.178644 -0.177116,-0.211221 z m 45.306212,0 c 0.26212,1.5e-5 0.3923,0.08363 0.42508,0.246424 0.0328,0.130264 0.0708,0.251723 0.0708,0.316832 -1e-5,0.06513 -0.0381,0.110905 -0.0708,0.176017 -0.0123,-0.109891 -0.0216,-0.208351 -0.0708,-0.281628 -0.0328,-0.09767 -0.0762,-0.181285 -0.1417,-0.246424 -0.0655,-0.09767 -0.14702,-0.178644 -0.21254,-0.211221 z"
       id="flowRoot3055"
       inkscape:connector-curvature="0" />
  </g>
</svg>
